<?xml version="1.0" encoding="UTF-8"?>
<?xml-stylesheet href="style.css" type="text/css"?>
<svg id="lul" width="1374" height="712" viewBox="0 0 1374 712" fill="none" xmlns="http://www.w3.org/2000/svg">
    <style>
        
        
        @media (prefers-color-scheme: light) {
            #lul {
                background-color: #fff;
            }
          #name {
             fill: #000 !important;
          }
          #subName {
            fill: #000 !important;
          }
        }

       @media (prefers-color-scheme: dark) {
         #lul {
                background-color: #000;
            }
          #name {
             fill: #fff !important;
          }
          #subName {
            fill: #fff !important;
          }
        }
        
        [data-color-mode="dark"] #name {
           fill: #fff !important;
        }
        
        [data-color-mode="dark"] #subName {
            fill: #fff !important;
        }
        
        html[data-color-mode="dark"] #name {
           fill: #fff !important;
        }
        
        html[data-color-mode="dark"] #subName {
            fill: #fff !important;
        }
        
    </style>
<mask id="mask0" mask-type="alpha" maskUnits="userSpaceOnUse" x="179" y="334" width="1135" height="174">
<rect x="179" y="334" width="1135" height="174" fill="#C4C4C4"/>
</mask>
<g mask="url(#mask0)">
<path id="name" d="M289.625 380.784H304.864C304.403 364.011 289.574 351.841 268.301 351.841C247.284 351.841 231.176 363.858 231.176 381.909C231.176 396.483 241.608 405.023 258.432 409.574L270.807 412.949C282.006 415.915 290.648 419.597 290.648 428.903C290.648 439.131 280.881 445.881 267.432 445.881C255.261 445.881 245.136 440.46 244.216 429.057H228.364C229.386 448.028 244.062 459.739 267.534 459.739C292.131 459.739 306.295 446.801 306.295 429.057C306.295 410.188 289.472 402.875 276.176 399.602L265.949 396.943C257.767 394.847 246.875 391.011 246.926 380.989C246.926 372.091 255.057 365.494 267.943 365.494C279.96 365.494 288.5 371.119 289.625 380.784ZM346.808 459.739C359.797 459.739 367.109 453.142 370.024 447.261H370.638V458H385.57V405.841C385.57 382.983 367.57 378.432 355.092 378.432C340.876 378.432 327.786 384.159 322.672 398.477L337.041 401.75C339.291 396.176 345.018 390.807 355.297 390.807C365.166 390.807 370.229 395.972 370.229 404.869V405.227C370.229 410.801 364.501 410.699 350.388 412.335C335.507 414.074 320.268 417.96 320.268 435.807C320.268 451.25 331.876 459.739 346.808 459.739ZM350.132 447.466C341.49 447.466 335.251 443.58 335.251 436.011C335.251 427.83 342.513 424.915 351.359 423.739C356.32 423.074 368.081 421.744 370.28 419.545V429.67C370.28 438.977 362.865 447.466 350.132 447.466ZM435.338 459.534C449.656 459.534 455.281 450.79 458.043 445.778H459.321V458H474.253V353.273H458.963V392.188H458.043C455.281 387.33 450.065 378.432 435.44 378.432C416.469 378.432 402.509 393.415 402.509 418.881C402.509 444.295 416.264 459.534 435.338 459.534ZM438.713 446.494C425.06 446.494 417.952 434.477 417.952 418.727C417.952 403.131 424.906 391.42 438.713 391.42C452.06 391.42 459.219 402.312 459.219 418.727C459.219 435.244 451.906 446.494 438.713 446.494ZM529.928 459.585C547.058 459.585 559.178 451.148 562.655 438.364L548.183 435.756C545.422 443.17 538.774 446.955 530.081 446.955C516.99 446.955 508.195 438.466 507.786 423.33H563.626V417.909C563.626 389.528 546.649 378.432 528.854 378.432C506.967 378.432 492.547 395.102 492.547 419.239C492.547 443.631 506.763 459.585 529.928 459.585ZM507.837 411.875C508.45 400.727 516.53 391.062 528.956 391.062C540.82 391.062 548.592 399.858 548.643 411.875H507.837ZM613.523 488.938C633.517 488.938 648.96 479.784 648.96 459.739V379.455H633.977V392.188H632.852C630.142 387.33 624.722 378.432 610.097 378.432C591.125 378.432 577.165 393.415 577.165 418.42C577.165 443.477 591.432 456.824 609.994 456.824C624.415 456.824 629.989 448.693 632.75 443.682H633.722V459.125C633.722 471.244 625.284 476.614 613.676 476.614C600.943 476.614 595.983 470.222 593.273 465.875L580.131 471.295C584.273 480.756 594.756 488.938 613.523 488.938ZM613.369 444.142C599.716 444.142 592.608 433.659 592.608 418.216C592.608 403.131 599.562 391.42 613.369 391.42C626.716 391.42 633.875 402.312 633.875 418.216C633.875 434.426 626.562 444.142 613.369 444.142ZM684.756 411.364C684.756 398.835 692.682 391.676 703.574 391.676C714.108 391.676 720.398 398.375 720.398 409.881V458H735.688V408.04C735.688 388.455 724.949 378.432 708.79 378.432C696.568 378.432 689.205 383.75 685.523 392.239H684.551V353.273H669.466V458H684.756V411.364ZM795.428 458H835.57C859.911 458 870.905 445.881 870.905 429.824C870.905 413.614 859.553 404.46 849.172 403.898V402.875C858.786 400.42 866.814 393.875 866.814 380.784C866.814 365.29 856.075 353.273 833.78 353.273H795.428V458ZM811.229 444.449V410.903H834.598C847.28 410.903 855.206 419.085 855.206 429.057C855.206 437.852 849.223 444.449 834.036 444.449H811.229ZM811.229 398.58V366.722H832.808C845.337 366.722 851.32 373.318 851.32 382.011C851.32 392.136 843.036 398.58 832.399 398.58H811.229ZM911.277 459.739C924.266 459.739 931.578 453.142 934.493 447.261H935.107V458H950.038V405.841C950.038 382.983 932.038 378.432 919.561 378.432C905.345 378.432 892.254 384.159 887.141 398.477L901.51 401.75C903.76 396.176 909.487 390.807 919.766 390.807C929.635 390.807 934.697 395.972 934.697 404.869V405.227C934.697 410.801 928.97 410.699 914.857 412.335C899.976 414.074 884.737 417.96 884.737 435.807C884.737 451.25 896.345 459.739 911.277 459.739ZM914.601 447.466C905.959 447.466 899.72 443.58 899.72 436.011C899.72 427.83 906.982 424.915 915.828 423.739C920.788 423.074 932.55 421.744 934.749 419.545V429.67C934.749 438.977 927.334 447.466 914.601 447.466ZM970.403 458H985.693V410.034C985.693 399.756 993.619 392.341 1004.46 392.341C1007.63 392.341 1011.21 392.903 1012.44 393.261V378.636C1010.9 378.432 1007.89 378.278 1005.94 378.278C996.739 378.278 988.864 383.494 986 391.932H985.182V379.455H970.403V458ZM1047.82 459.739C1060.81 459.739 1068.12 453.142 1071.04 447.261H1071.65V458H1086.59V405.841C1086.59 382.983 1068.59 378.432 1056.11 378.432C1041.89 378.432 1028.8 384.159 1023.69 398.477L1038.06 401.75C1040.31 396.176 1046.03 390.807 1056.31 390.807C1066.18 390.807 1071.24 395.972 1071.24 404.869V405.227C1071.24 410.801 1065.52 410.699 1051.4 412.335C1036.52 414.074 1021.28 417.96 1021.28 435.807C1021.28 451.25 1032.89 459.739 1047.82 459.739ZM1051.15 447.466C1042.51 447.466 1036.27 443.58 1036.27 436.011C1036.27 427.83 1043.53 424.915 1052.38 423.739C1057.34 423.074 1069.1 421.744 1071.3 419.545V429.67C1071.3 438.977 1063.88 447.466 1051.15 447.466ZM1143.62 379.455H1127.51V360.636H1112.22V379.455H1100.71V391.727H1112.22V438.108C1112.17 452.375 1123.06 459.278 1135.13 459.023C1139.98 458.972 1143.26 458.051 1145.05 457.386L1142.29 444.756C1141.26 444.96 1139.37 445.42 1136.92 445.42C1131.96 445.42 1127.51 443.784 1127.51 434.938V391.727H1143.62V379.455ZM1160.53 458H1175.82V379.455H1160.53V458ZM1168.25 367.335C1173.52 367.335 1177.91 363.244 1177.91 358.233C1177.91 353.222 1173.52 349.08 1168.25 349.08C1162.93 349.08 1158.59 353.222 1158.59 358.233C1158.59 363.244 1162.93 367.335 1168.25 367.335Z" fill="currentColor"/>
<path id="subName" d="M289.625 380.784L288.632 380.9L288.735 381.784H289.625V380.784ZM304.864 380.784V381.784H305.891L305.863 380.757L304.864 380.784ZM258.432 409.574L258.695 408.609L258.693 408.609L258.432 409.574ZM270.807 412.949L270.544 413.914L270.551 413.916L270.807 412.949ZM244.216 429.057L245.213 428.976L245.138 428.057H244.216V429.057ZM228.364 429.057V428.057H227.308L227.365 429.111L228.364 429.057ZM276.176 399.602L275.924 400.57L275.937 400.573L276.176 399.602ZM265.949 396.943L266.201 395.975L266.197 395.974L265.949 396.943ZM246.926 380.989L247.926 380.994V380.989H246.926ZM289.625 381.784H304.864V379.784H289.625V381.784ZM305.863 380.757C305.383 363.272 289.926 350.841 268.301 350.841V352.841C289.221 352.841 303.423 364.751 303.864 380.812L305.863 380.757ZM268.301 350.841C246.964 350.841 230.176 363.099 230.176 381.909H232.176C232.176 364.617 247.605 352.841 268.301 352.841V350.841ZM230.176 381.909C230.176 389.467 232.894 395.506 237.802 400.221C242.681 404.908 249.673 408.24 258.171 410.539L258.693 408.609C250.367 406.356 243.731 403.144 239.188 398.779C234.674 394.443 232.176 388.925 232.176 381.909H230.176ZM258.169 410.539L270.544 413.914L271.07 411.984L258.695 408.609L258.169 410.539ZM270.551 413.916C276.144 415.397 280.954 417.024 284.359 419.372C287.702 421.676 289.648 424.639 289.648 428.903H291.648C291.648 423.861 289.272 420.329 285.494 417.725C281.779 415.163 276.668 413.467 271.063 411.982L270.551 413.916ZM289.648 428.903C289.648 433.66 287.391 437.616 283.499 440.415C279.586 443.231 274.001 444.881 267.432 444.881V446.881C274.312 446.881 280.335 445.156 284.667 442.039C289.021 438.907 291.648 434.374 291.648 428.903H289.648ZM267.432 444.881C261.48 444.881 256.117 443.553 252.16 440.913C248.235 438.294 245.647 434.359 245.213 428.976L243.219 429.137C243.705 435.158 246.64 439.635 251.05 442.577C255.428 445.498 261.213 446.881 267.432 446.881V444.881ZM244.216 428.057H228.364V430.057H244.216V428.057ZM227.365 429.111C227.891 438.862 231.939 446.808 238.912 452.298C245.865 457.772 255.641 460.739 267.534 460.739V458.739C255.956 458.739 246.657 455.85 240.149 450.726C233.661 445.618 229.859 438.223 229.362 429.003L227.365 429.111ZM267.534 460.739C280 460.739 289.936 457.46 296.774 451.824C303.63 446.174 307.295 438.216 307.295 429.057H305.295C305.295 437.642 301.879 445.025 295.503 450.28C289.11 455.549 279.665 458.739 267.534 458.739V460.739ZM307.295 429.057C307.295 419.27 302.91 412.449 296.838 407.694C290.806 402.969 283.115 400.28 276.415 398.631L275.937 400.573C282.533 402.197 289.902 404.801 295.605 409.268C301.269 413.704 305.295 419.975 305.295 429.057H307.295ZM276.428 398.634L266.201 395.975L265.697 397.911L275.925 400.57L276.428 398.634ZM266.197 395.974C262.121 394.93 257.493 393.48 253.902 391.104C250.344 388.75 247.903 385.563 247.926 380.994L245.926 380.984C245.898 386.437 248.878 390.179 252.798 392.772C256.686 395.344 261.595 396.86 265.701 397.912L266.197 395.974ZM247.926 380.989C247.926 376.874 249.795 373.288 253.206 370.702C256.636 368.103 261.661 366.494 267.943 366.494V364.494C261.339 364.494 255.856 366.184 251.998 369.108C248.123 372.045 245.926 376.205 245.926 380.989H247.926ZM267.943 366.494C273.805 366.494 278.731 367.867 282.3 370.337C285.847 372.793 288.103 376.361 288.632 380.9L290.618 380.668C290.022 375.543 287.445 371.466 283.438 368.693C279.451 365.934 274.098 364.494 267.943 364.494V366.494ZM370.024 447.261V446.261H369.404L369.128 446.817L370.024 447.261ZM370.638 447.261H371.638V446.261H370.638V447.261ZM370.638 458H369.638V459H370.638V458ZM385.57 458V459H386.57V458H385.57ZM322.672 398.477L321.73 398.141L321.351 399.202L322.45 399.452L322.672 398.477ZM337.041 401.75L336.819 402.725L337.65 402.914L337.968 402.124L337.041 401.75ZM350.388 412.335L350.273 411.342L350.272 411.342L350.388 412.335ZM351.359 423.739L351.491 424.73L351.492 424.73L351.359 423.739ZM370.28 419.545H371.28V417.131L369.573 418.838L370.28 419.545ZM346.808 460.739C360.182 460.739 367.839 453.922 370.92 447.705L369.128 446.817C366.38 452.362 359.412 458.739 346.808 458.739V460.739ZM370.024 448.261H370.638V446.261H370.024V448.261ZM369.638 447.261V458H371.638V447.261H369.638ZM370.638 459H385.57V457H370.638V459ZM386.57 458V405.841H384.57V458H386.57ZM386.57 405.841C386.57 394.102 381.922 386.924 375.56 382.73C369.268 378.581 361.422 377.432 355.092 377.432V379.432C361.24 379.432 368.633 380.558 374.46 384.4C380.218 388.196 384.57 394.722 384.57 405.841H386.57ZM355.092 377.432C340.626 377.432 327.036 383.284 321.73 398.141L323.614 398.814C328.535 385.034 341.127 379.432 355.092 379.432V377.432ZM322.45 399.452L336.819 402.725L337.263 400.775L322.894 397.502L322.45 399.452ZM337.968 402.124C340.068 396.923 345.432 391.807 355.297 391.807V389.807C344.605 389.807 338.514 395.429 336.114 401.376L337.968 402.124ZM355.297 391.807C360.066 391.807 363.515 393.053 365.771 395.222C368.02 397.386 369.229 400.608 369.229 404.869H371.229C371.229 400.233 369.906 396.424 367.157 393.781C364.414 391.143 360.397 389.807 355.297 389.807V391.807ZM369.229 404.869V405.227H371.229V404.869H369.229ZM369.229 405.227C369.229 406.436 368.925 407.204 368.387 407.772C367.815 408.376 366.867 408.874 365.337 409.293C362.238 410.142 357.415 410.514 350.273 411.342L350.503 413.329C357.474 412.52 362.571 412.125 365.865 411.222C367.531 410.766 368.896 410.143 369.839 409.147C370.816 408.115 371.229 406.805 371.229 405.227H369.229ZM350.272 411.342C342.823 412.212 335.101 413.634 329.231 417.174C326.278 418.956 323.774 421.284 322.014 424.358C320.254 427.433 319.268 431.199 319.268 435.807H321.268C321.268 431.492 322.188 428.079 323.75 425.352C325.312 422.624 327.548 420.525 330.264 418.887C335.734 415.588 343.072 414.197 350.504 413.328L350.272 411.342ZM319.268 435.807C319.268 443.801 322.284 450.07 327.291 454.326C332.279 458.565 339.161 460.739 346.808 460.739V458.739C339.523 458.739 333.135 456.668 328.587 452.802C324.057 448.953 321.268 443.256 321.268 435.807H319.268ZM350.132 446.466C345.943 446.466 342.453 445.522 340.039 443.768C337.663 442.042 336.251 439.482 336.251 436.011H334.251C334.251 440.109 335.959 443.276 338.863 445.386C341.728 447.467 345.679 448.466 350.132 448.466V446.466ZM336.251 436.011C336.251 432.288 337.871 429.816 340.533 428.086C343.263 426.312 347.109 425.312 351.491 424.73L351.228 422.747C346.763 423.341 342.555 424.387 339.443 426.409C336.263 428.476 334.251 431.553 334.251 436.011H336.251ZM351.492 424.73C353.952 424.4 358.168 423.897 362.032 423.202C363.965 422.854 365.838 422.453 367.379 421.993C368.15 421.763 368.857 421.513 369.455 421.239C370.04 420.971 370.589 420.65 370.987 420.253L369.573 418.838C369.421 418.99 369.121 419.192 368.623 419.42C368.138 419.642 367.526 419.862 366.808 420.077C365.37 420.505 363.581 420.891 361.678 421.233C357.872 421.918 353.727 422.412 351.227 422.747L351.492 424.73ZM369.28 419.545V429.67H371.28V419.545H369.28ZM369.28 429.67C369.28 438.381 362.358 446.466 350.132 446.466V448.466C363.372 448.466 371.28 439.574 371.28 429.67H369.28ZM458.043 445.778V444.778H457.452L457.167 445.296L458.043 445.778ZM459.321 445.778H460.321V444.778H459.321V445.778ZM459.321 458H458.321V459H459.321V458ZM474.253 458V459H475.253V458H474.253ZM474.253 353.273H475.253V352.273H474.253V353.273ZM458.963 353.273V352.273H457.963V353.273H458.963ZM458.963 392.188V393.188H459.963V392.188H458.963ZM458.043 392.188L457.173 392.682L457.461 393.188H458.043V392.188ZM435.338 460.534C442.721 460.534 447.927 458.273 451.646 455.319C455.345 452.381 457.519 448.801 458.918 446.261L457.167 445.296C455.805 447.767 453.786 451.065 450.402 453.752C447.039 456.423 442.273 458.534 435.338 458.534V460.534ZM458.043 446.778H459.321V444.778H458.043V446.778ZM458.321 445.778V458H460.321V445.778H458.321ZM459.321 459H474.253V457H459.321V459ZM475.253 458V353.273H473.253V458H475.253ZM474.253 352.273H458.963V354.273H474.253V352.273ZM457.963 353.273V392.188H459.963V353.273H457.963ZM458.963 391.188H458.043V393.188H458.963V391.188ZM458.912 391.693C457.528 389.258 455.456 385.672 451.822 382.713C448.162 379.732 442.978 377.432 435.44 377.432V379.432C442.528 379.432 447.264 381.58 450.559 384.263C453.879 386.967 455.796 390.259 457.173 392.682L458.912 391.693ZM435.44 377.432C425.673 377.432 417.156 381.297 411.097 388.461C405.048 395.611 401.509 405.97 401.509 418.881H403.509C403.509 406.325 406.949 396.46 412.624 389.752C418.287 383.058 426.236 379.432 435.44 379.432V377.432ZM401.509 418.881C401.509 431.762 404.995 442.171 411.002 449.378C417.022 456.601 425.515 460.534 435.338 460.534V458.534C426.087 458.534 418.165 454.848 412.539 448.098C406.9 441.332 403.509 431.414 403.509 418.881H401.509ZM438.713 445.494C432.225 445.494 427.335 442.659 424.031 437.943C420.701 433.189 418.952 426.469 418.952 418.727H416.952C416.952 426.735 418.756 433.899 422.393 439.091C426.057 444.321 431.548 447.494 438.713 447.494V445.494ZM418.952 418.727C418.952 411.059 420.664 404.459 423.97 399.804C427.248 395.19 432.135 392.42 438.713 392.42V390.42C431.485 390.42 425.991 393.506 422.34 398.646C418.717 403.746 416.952 410.799 416.952 418.727H418.952ZM438.713 392.42C445.077 392.42 449.897 394.998 453.161 399.505C456.454 404.052 458.219 410.647 458.219 418.727H460.219C460.219 410.393 458.404 403.334 454.781 398.332C451.128 393.289 445.696 390.42 438.713 390.42V392.42ZM458.219 418.727C458.219 426.856 456.417 433.571 453.099 438.224C449.808 442.84 444.985 445.494 438.713 445.494V447.494C445.635 447.494 451.064 444.524 454.728 439.385C458.364 434.285 460.219 427.116 460.219 418.727H458.219ZM562.655 438.364L563.62 438.626L563.906 437.573L562.832 437.379L562.655 438.364ZM548.183 435.756L548.361 434.772L547.538 434.623L547.246 435.407L548.183 435.756ZM507.786 423.33V422.33H506.758L506.786 423.357L507.786 423.33ZM563.626 423.33V424.33H564.626V423.33H563.626ZM507.837 411.875L506.838 411.82L506.78 412.875H507.837V411.875ZM548.643 411.875V412.875H549.648L549.643 411.871L548.643 411.875ZM529.928 460.585C547.39 460.585 559.995 451.951 563.62 438.626L561.69 438.101C558.36 450.344 546.727 458.585 529.928 458.585V460.585ZM562.832 437.379L548.361 434.772L548.006 436.74L562.477 439.348L562.832 437.379ZM547.246 435.407C544.664 442.339 538.463 445.955 530.081 445.955V447.955C539.085 447.955 546.179 444.002 549.12 436.105L547.246 435.407ZM530.081 445.955C523.758 445.955 518.563 443.91 514.896 440.123C511.224 436.329 508.985 430.684 508.785 423.303L506.786 423.357C506.995 431.111 509.359 437.279 513.459 441.514C517.565 445.755 523.313 447.955 530.081 447.955V445.955ZM507.786 424.33H563.626V422.33H507.786V424.33ZM564.626 423.33V417.909H562.626V423.33H564.626ZM564.626 417.909C564.626 403.514 560.315 393.363 553.612 386.813C546.918 380.271 537.953 377.432 528.854 377.432V379.432C537.549 379.432 545.971 382.141 552.214 388.243C558.449 394.336 562.626 403.923 562.626 417.909H564.626ZM528.854 377.432C517.64 377.432 508.284 381.711 501.743 389.122C495.212 396.523 491.547 406.975 491.547 419.239H493.547C493.547 407.366 497.092 397.415 503.243 390.446C509.383 383.488 518.181 379.432 528.854 379.432V377.432ZM491.547 419.239C491.547 431.625 495.158 441.973 501.813 449.235C508.477 456.506 518.104 460.585 529.928 460.585V458.585C518.586 458.585 509.523 454.687 503.288 447.883C497.043 441.07 493.547 431.244 493.547 419.239H491.547ZM508.835 411.93C509.425 401.22 517.148 392.062 528.956 392.062V390.062C515.911 390.062 507.476 400.234 506.838 411.82L508.835 411.93ZM528.956 392.062C534.627 392.062 539.265 394.158 542.496 397.642C545.735 401.134 547.619 406.085 547.643 411.879L549.643 411.871C549.617 405.648 547.589 400.192 543.963 396.282C540.329 392.365 535.148 390.062 528.956 390.062V392.062ZM548.643 410.875H507.837V412.875H548.643V410.875ZM648.96 379.455H649.96V378.455H648.96V379.455ZM633.977 379.455V378.455H632.977V379.455H633.977ZM633.977 392.188V393.188H634.977V392.188H633.977ZM632.852 392.188L631.979 392.675L632.265 393.188H632.852V392.188ZM632.75 443.682V442.682H632.159L631.874 443.199L632.75 443.682ZM633.722 443.682H634.722V442.682H633.722V443.682ZM593.273 465.875L594.121 465.346L593.674 464.628L592.891 464.951L593.273 465.875ZM580.131 471.295L579.749 470.371L578.805 470.761L579.215 471.697L580.131 471.295ZM613.523 489.938C623.654 489.938 632.751 487.621 639.341 482.654C645.971 477.657 649.96 470.051 649.96 459.739H647.96C647.96 469.472 644.228 476.466 638.137 481.057C632.007 485.677 623.386 487.938 613.523 487.938V489.938ZM649.96 459.739V379.455H647.96V459.739H649.96ZM648.96 378.455H633.977V380.455H648.96V378.455ZM632.977 379.455V392.188H634.977V379.455H632.977ZM633.977 391.188H632.852V393.188H633.977V391.188ZM633.726 391.7C632.359 389.251 630.25 385.668 626.569 382.709C622.866 379.732 617.633 377.432 610.097 377.432V379.432C617.185 379.432 621.974 381.581 625.316 384.267C628.679 386.972 630.635 390.266 631.979 392.675L633.726 391.7ZM610.097 377.432C600.33 377.432 591.815 381.297 585.756 388.4C579.707 395.491 576.165 405.736 576.165 418.42H578.165C578.165 406.099 581.603 396.35 587.277 389.698C592.941 383.058 600.891 379.432 610.097 379.432V377.432ZM576.165 418.42C576.165 431.137 579.787 440.998 585.879 447.692C591.977 454.392 600.464 457.824 609.994 457.824V455.824C600.962 455.824 593.035 452.583 587.358 446.345C581.676 440.101 578.165 430.761 578.165 418.42H576.165ZM609.994 457.824C617.409 457.824 622.621 455.728 626.345 452.932C630.052 450.148 632.219 446.718 633.626 444.164L631.874 443.199C630.52 445.657 628.519 448.798 625.144 451.332C621.785 453.854 617 455.824 609.994 455.824V457.824ZM632.75 444.682H633.722V442.682H632.75V444.682ZM632.722 443.682V459.125H634.722V443.682H632.722ZM632.722 459.125C632.722 464.931 630.714 468.996 627.426 471.634C624.103 474.301 619.344 475.614 613.676 475.614V477.614C619.616 477.614 624.88 476.242 628.678 473.194C632.511 470.118 634.722 465.438 634.722 459.125H632.722ZM613.676 475.614C607.489 475.614 603.264 474.064 600.276 472.046C597.275 470.019 595.447 467.472 594.121 465.346L592.424 466.404C593.809 468.625 595.815 471.447 599.156 473.703C602.508 475.967 607.131 477.614 613.676 477.614V475.614ZM592.891 464.951L579.749 470.371L580.512 472.22L593.654 466.799L592.891 464.951ZM579.215 471.697C583.545 481.587 594.436 489.938 613.523 489.938V487.938C595.075 487.938 585 479.925 581.047 470.894L579.215 471.697ZM613.369 443.142C606.829 443.142 601.942 440.647 598.663 436.362C595.356 432.042 593.608 425.801 593.608 418.216H591.608C591.608 426.074 593.414 432.796 597.075 437.578C600.762 442.396 606.257 445.142 613.369 445.142V443.142ZM593.608 418.216C593.608 410.81 595.317 404.337 598.623 399.745C601.901 395.191 606.79 392.42 613.369 392.42V390.42C606.142 390.42 600.651 393.505 596.999 398.577C593.376 403.612 591.608 410.537 591.608 418.216H593.608ZM613.369 392.42C619.734 392.42 624.557 395 627.821 399.446C631.113 403.931 632.875 410.397 632.875 418.216H634.875C634.875 410.131 633.058 403.2 629.433 398.263C625.781 393.287 620.351 390.42 613.369 390.42V392.42ZM632.875 418.216C632.875 426.188 631.075 432.423 627.781 436.643C624.515 440.827 619.695 443.142 613.369 443.142V445.142C620.237 445.142 625.669 442.599 629.358 437.873C633.019 433.182 634.875 426.454 634.875 418.216H632.875ZM720.398 458H719.398V459H720.398V458ZM735.688 458V459H736.688V458H735.688ZM685.523 392.239V393.239H686.179L686.44 392.637L685.523 392.239ZM684.551 392.239H683.551V393.239H684.551V392.239ZM684.551 353.273H685.551V352.273H684.551V353.273ZM669.466 353.273V352.273H668.466V353.273H669.466ZM669.466 458H668.466V459H669.466V458ZM684.756 458V459H685.756V458H684.756ZM685.756 411.364C685.756 405.315 687.664 400.664 690.789 397.527C693.915 394.389 698.35 392.676 703.574 392.676V390.676C697.906 390.676 692.932 392.543 689.372 396.116C685.81 399.691 683.756 404.884 683.756 411.364H685.756ZM703.574 392.676C708.623 392.676 712.54 394.275 715.203 397.144C717.875 400.023 719.398 404.304 719.398 409.881H721.398C721.398 403.952 719.776 399.131 716.669 395.783C713.553 392.427 709.059 390.676 703.574 390.676V392.676ZM719.398 409.881V458H721.398V409.881H719.398ZM720.398 459H735.688V457H720.398V459ZM736.688 458V408.04H734.688V458H736.688ZM736.688 408.04C736.688 398.069 733.952 390.392 729.023 385.203C724.09 380.008 717.079 377.432 708.79 377.432V379.432C716.66 379.432 723.098 381.867 727.573 386.58C732.054 391.298 734.688 398.425 734.688 408.04H736.688ZM708.79 377.432C702.533 377.432 697.444 378.794 693.424 381.304C689.4 383.816 686.515 387.437 684.605 391.841L686.44 392.637C688.212 388.552 690.85 385.269 694.483 383C698.122 380.729 702.825 379.432 708.79 379.432V377.432ZM685.523 391.239H684.551V393.239H685.523V391.239ZM685.551 392.239V353.273H683.551V392.239H685.551ZM684.551 352.273H669.466V354.273H684.551V352.273ZM668.466 353.273V458H670.466V353.273H668.466ZM669.466 459H684.756V457H669.466V459ZM685.756 458V411.364H683.756V458H685.756ZM795.428 458H794.428V459H795.428V458ZM849.172 403.898H848.172V404.845L849.118 404.896L849.172 403.898ZM849.172 402.875L848.924 401.906L848.172 402.098V402.875H849.172ZM795.428 353.273V352.273H794.428V353.273H795.428ZM811.229 444.449H810.229V445.449H811.229V444.449ZM811.229 410.903V409.903H810.229V410.903H811.229ZM811.229 398.58H810.229V399.58H811.229V398.58ZM811.229 366.722V365.722H810.229V366.722H811.229ZM795.428 459H835.57V457H795.428V459ZM835.57 459C847.896 459 856.993 455.931 863.021 450.688C869.067 445.43 871.905 438.091 871.905 429.824H869.905C869.905 437.614 867.246 444.363 861.709 449.179C856.155 454.009 847.585 457 835.57 457V459ZM871.905 429.824C871.905 413.086 860.141 403.491 849.226 402.899L849.118 404.896C858.964 405.43 869.905 414.141 869.905 429.824H871.905ZM850.172 403.898V402.875H848.172V403.898H850.172ZM849.419 403.844C854.36 402.582 858.967 400.251 862.343 396.486C865.733 392.704 867.814 387.55 867.814 380.784H865.814C865.814 387.109 863.881 391.773 860.853 395.151C857.812 398.544 853.597 400.713 848.924 401.906L849.419 403.844ZM867.814 380.784C867.814 372.798 865.04 365.634 859.328 360.476C853.625 355.326 845.102 352.273 833.78 352.273V354.273C844.753 354.273 852.747 357.228 857.987 361.96C863.219 366.684 865.814 373.276 865.814 380.784H867.814ZM833.78 352.273H795.428V354.273H833.78V352.273ZM794.428 353.273V458H796.428V353.273H794.428ZM812.229 444.449V410.903H810.229V444.449H812.229ZM811.229 411.903H834.598V409.903H811.229V411.903ZM834.598 411.903C846.805 411.903 854.206 419.712 854.206 429.057H856.206C856.206 418.459 847.755 409.903 834.598 409.903V411.903ZM854.206 429.057C854.206 433.212 852.804 436.75 849.687 439.274C846.537 441.824 841.504 443.449 834.036 443.449V445.449C841.755 445.449 847.306 443.775 850.945 440.828C854.617 437.855 856.206 433.697 856.206 429.057H854.206ZM834.036 443.449H811.229V445.449H834.036V443.449ZM812.229 398.58V366.722H810.229V398.58H812.229ZM811.229 367.722H832.808V365.722H811.229V367.722ZM832.808 367.722C838.904 367.722 843.268 369.325 846.096 371.852C848.913 374.369 850.32 377.903 850.32 382.011H852.32C852.32 377.427 850.735 373.315 847.428 370.361C844.133 367.416 839.241 365.722 832.808 365.722V367.722ZM850.32 382.011C850.32 386.778 848.379 390.642 845.202 393.329C842.011 396.028 837.521 397.58 832.399 397.58V399.58C837.913 399.58 842.884 397.909 846.494 394.856C850.118 391.79 852.32 387.369 852.32 382.011H850.32ZM832.399 397.58H811.229V399.58H832.399V397.58ZM934.493 447.261V446.261H933.872L933.597 446.817L934.493 447.261ZM935.107 447.261H936.107V446.261H935.107V447.261ZM935.107 458H934.107V459H935.107V458ZM950.038 458V459H951.038V458H950.038ZM887.141 398.477L886.199 398.141L885.82 399.202L886.919 399.452L887.141 398.477ZM901.51 401.75L901.288 402.725L902.118 402.914L902.437 402.124L901.51 401.75ZM914.857 412.335L914.741 411.342L914.74 411.342L914.857 412.335ZM915.828 423.739L915.96 424.73L915.961 424.73L915.828 423.739ZM934.749 419.545H935.749V417.131L934.041 418.838L934.749 419.545ZM911.277 460.739C924.651 460.739 932.308 453.922 935.389 447.705L933.597 446.817C930.849 452.362 923.881 458.739 911.277 458.739V460.739ZM934.493 448.261H935.107V446.261H934.493V448.261ZM934.107 447.261V458H936.107V447.261H934.107ZM935.107 459H950.038V457H935.107V459ZM951.038 458V405.841H949.038V458H951.038ZM951.038 405.841C951.038 394.102 946.39 386.924 940.029 382.73C933.736 378.581 925.891 377.432 919.561 377.432V379.432C925.709 379.432 933.102 380.558 938.928 384.4C944.686 388.196 949.038 394.722 949.038 405.841H951.038ZM919.561 377.432C905.094 377.432 891.505 383.284 886.199 398.141L888.082 398.814C893.004 385.034 905.596 379.432 919.561 379.432V377.432ZM886.919 399.452L901.288 402.725L901.732 400.775L887.363 397.502L886.919 399.452ZM902.437 402.124C904.537 396.923 909.901 391.807 919.766 391.807V389.807C909.073 389.807 902.983 395.429 900.583 401.376L902.437 402.124ZM919.766 391.807C924.534 391.807 927.984 393.053 930.239 395.222C932.489 397.386 933.697 400.608 933.697 404.869H935.697C935.697 400.233 934.375 396.424 931.626 393.781C928.883 391.143 924.866 389.807 919.766 389.807V391.807ZM933.697 404.869V405.227H935.697V404.869H933.697ZM933.697 405.227C933.697 406.436 933.394 407.204 932.856 407.772C932.284 408.376 931.336 408.874 929.805 409.293C926.707 410.142 921.884 410.514 914.741 411.342L914.972 413.329C921.943 412.52 927.04 412.125 930.334 411.222C932 410.766 933.365 410.143 934.308 409.147C935.285 408.115 935.697 406.805 935.697 405.227H933.697ZM914.74 411.342C907.292 412.212 899.57 413.634 893.7 417.174C890.747 418.956 888.243 421.284 886.483 424.358C884.722 427.433 883.737 431.199 883.737 435.807H885.737C885.737 431.492 886.657 428.079 888.219 425.352C889.781 422.624 892.017 420.525 894.733 418.887C900.203 415.588 907.541 414.197 914.973 413.328L914.74 411.342ZM883.737 435.807C883.737 443.801 886.752 450.07 891.76 454.326C896.748 458.565 903.63 460.739 911.277 460.739V458.739C903.992 458.739 897.604 456.668 893.055 452.802C888.526 448.953 885.737 443.256 885.737 435.807H883.737ZM914.601 446.466C910.412 446.466 906.922 445.522 904.507 443.768C902.132 442.042 900.72 439.482 900.72 436.011H898.72C898.72 440.109 900.428 443.276 903.332 445.386C906.197 447.467 910.148 448.466 914.601 448.466V446.466ZM900.72 436.011C900.72 432.288 902.339 429.816 905.002 428.086C907.732 426.312 911.578 425.312 915.96 424.73L915.696 422.747C911.232 423.341 907.024 424.387 903.912 426.409C900.732 428.476 898.72 431.553 898.72 436.011H900.72ZM915.961 424.73C918.42 424.4 922.637 423.897 926.501 423.202C928.433 422.854 930.307 422.453 931.848 421.993C932.619 421.763 933.325 421.513 933.924 421.239C934.509 420.971 935.058 420.65 935.456 420.253L934.041 418.838C933.89 418.99 933.59 419.192 933.091 419.42C932.607 419.642 931.995 419.862 931.276 420.077C929.839 420.505 928.049 420.891 926.147 421.233C922.341 421.918 918.196 422.412 915.695 422.747L915.961 424.73ZM933.749 419.545V429.67H935.749V419.545H933.749ZM933.749 429.67C933.749 438.381 926.827 446.466 914.601 446.466V448.466C927.841 448.466 935.749 439.574 935.749 429.67H933.749ZM970.403 458H969.403V459H970.403V458ZM985.693 458V459H986.693V458H985.693ZM1012.44 393.261L1012.16 394.221L1013.44 394.595V393.261H1012.44ZM1012.44 378.636H1013.44V377.761L1012.57 377.645L1012.44 378.636ZM986 391.932V392.932H986.717L986.947 392.253L986 391.932ZM985.182 391.932H984.182V392.932H985.182V391.932ZM985.182 379.455H986.182V378.455H985.182V379.455ZM970.403 379.455V378.455H969.403V379.455H970.403ZM970.403 459H985.693V457H970.403V459ZM986.693 458V410.034H984.693V458H986.693ZM986.693 410.034C986.693 400.365 994.113 393.341 1004.46 393.341V391.341C993.126 391.341 984.693 399.147 984.693 410.034H986.693ZM1004.46 393.341C1007.56 393.341 1011.04 393.895 1012.16 394.221L1012.72 392.301C1011.38 391.912 1007.71 391.341 1004.46 391.341V393.341ZM1013.44 393.261V378.636H1011.44V393.261H1013.44ZM1012.57 377.645C1010.98 377.433 1007.91 377.278 1005.94 377.278V379.278C1007.86 379.278 1010.83 379.431 1012.31 379.628L1012.57 377.645ZM1005.94 377.278C996.353 377.278 988.068 382.728 985.053 391.61L986.947 392.253C989.66 384.261 997.124 379.278 1005.94 379.278V377.278ZM986 390.932H985.182V392.932H986V390.932ZM986.182 391.932V379.455H984.182V391.932H986.182ZM985.182 378.455H970.403V380.455H985.182V378.455ZM969.403 379.455V458H971.403V379.455H969.403ZM1071.04 447.261V446.261H1070.42L1070.14 446.817L1071.04 447.261ZM1071.65 447.261H1072.65V446.261H1071.65V447.261ZM1071.65 458H1070.65V459H1071.65V458ZM1086.59 458V459H1087.59V458H1086.59ZM1023.69 398.477L1022.75 398.141L1022.37 399.202L1023.47 399.452L1023.69 398.477ZM1038.06 401.75L1037.83 402.725L1038.67 402.914L1038.98 402.124L1038.06 401.75ZM1051.4 412.335L1051.29 411.342L1051.29 411.342L1051.4 412.335ZM1052.38 423.739L1052.51 424.73L1052.51 424.73L1052.38 423.739ZM1071.3 419.545H1072.3V417.131L1070.59 418.838L1071.3 419.545ZM1047.82 460.739C1061.2 460.739 1068.85 453.922 1071.94 447.705L1070.14 446.817C1067.4 452.362 1060.43 458.739 1047.82 458.739V460.739ZM1071.04 448.261H1071.65V446.261H1071.04V448.261ZM1070.65 447.261V458H1072.65V447.261H1070.65ZM1071.65 459H1086.59V457H1071.65V459ZM1087.59 458V405.841H1085.59V458H1087.59ZM1087.59 405.841C1087.59 394.102 1082.94 386.924 1076.58 382.73C1070.28 378.581 1062.44 377.432 1056.11 377.432V379.432C1062.26 379.432 1069.65 380.558 1075.48 384.4C1081.23 388.196 1085.59 394.722 1085.59 405.841H1087.59ZM1056.11 377.432C1041.64 377.432 1028.05 383.284 1022.75 398.141L1024.63 398.814C1029.55 385.034 1042.14 379.432 1056.11 379.432V377.432ZM1023.47 399.452L1037.83 402.725L1038.28 400.775L1023.91 397.502L1023.47 399.452ZM1038.98 402.124C1041.08 396.923 1046.45 391.807 1056.31 391.807V389.807C1045.62 389.807 1039.53 395.429 1037.13 401.376L1038.98 402.124ZM1056.31 391.807C1061.08 391.807 1064.53 393.053 1066.79 395.222C1069.04 397.386 1070.24 400.608 1070.24 404.869H1072.24C1072.24 400.233 1070.92 396.424 1068.17 393.781C1065.43 391.143 1061.41 389.807 1056.31 389.807V391.807ZM1070.24 404.869V405.227H1072.24V404.869H1070.24ZM1070.24 405.227C1070.24 406.436 1069.94 407.204 1069.4 407.772C1068.83 408.376 1067.88 408.874 1066.35 409.293C1063.25 410.142 1058.43 410.514 1051.29 411.342L1051.52 413.329C1058.49 412.52 1063.59 412.125 1066.88 411.222C1068.55 410.766 1069.91 410.143 1070.85 409.147C1071.83 408.115 1072.24 406.805 1072.24 405.227H1070.24ZM1051.29 411.342C1043.84 412.212 1036.12 413.634 1030.25 417.174C1027.29 418.956 1024.79 421.284 1023.03 424.358C1021.27 427.433 1020.28 431.199 1020.28 435.807H1022.28C1022.28 431.492 1023.2 428.079 1024.77 425.352C1026.33 422.624 1028.56 420.525 1031.28 418.887C1036.75 415.588 1044.09 414.197 1051.52 413.328L1051.29 411.342ZM1020.28 435.807C1020.28 443.801 1023.3 450.07 1028.31 454.326C1033.29 458.565 1040.18 460.739 1047.82 460.739V458.739C1040.54 458.739 1034.15 456.668 1029.6 452.802C1025.07 448.953 1022.28 443.256 1022.28 435.807H1020.28ZM1051.15 446.466C1046.96 446.466 1043.47 445.522 1041.05 443.768C1038.68 442.042 1037.27 439.482 1037.27 436.011H1035.27C1035.27 440.109 1036.97 443.276 1039.88 445.386C1042.74 447.467 1046.69 448.466 1051.15 448.466V446.466ZM1037.27 436.011C1037.27 432.288 1038.89 429.816 1041.55 428.086C1044.28 426.312 1048.12 425.312 1052.51 424.73L1052.24 422.747C1047.78 423.341 1043.57 424.387 1040.46 426.409C1037.28 428.476 1035.27 431.553 1035.27 436.011H1037.27ZM1052.51 424.73C1054.97 424.4 1059.18 423.897 1063.05 423.202C1064.98 422.854 1066.85 422.453 1068.39 421.993C1069.17 421.763 1069.87 421.513 1070.47 421.239C1071.06 420.971 1071.6 420.65 1072 420.253L1070.59 418.838C1070.44 418.99 1070.14 419.192 1069.64 419.42C1069.15 419.642 1068.54 419.862 1067.82 420.077C1066.39 420.505 1064.6 420.891 1062.69 421.233C1058.89 421.918 1054.74 422.412 1052.24 422.747L1052.51 424.73ZM1070.3 419.545V429.67H1072.3V419.545H1070.3ZM1070.3 429.67C1070.3 438.381 1063.37 446.466 1051.15 446.466V448.466C1064.39 448.466 1072.3 439.574 1072.3 429.67H1070.3ZM1143.62 379.455H1144.62V378.455H1143.62V379.455ZM1127.51 379.455H1126.51V380.455H1127.51V379.455ZM1127.51 360.636H1128.51V359.636H1127.51V360.636ZM1112.22 360.636V359.636H1111.22V360.636H1112.22ZM1112.22 379.455V380.455H1113.22V379.455H1112.22ZM1100.71 379.455V378.455H1099.71V379.455H1100.71ZM1100.71 391.727H1099.71V392.727H1100.71V391.727ZM1112.22 391.727H1113.22V390.727H1112.22V391.727ZM1112.22 438.108L1113.22 438.112V438.108H1112.22ZM1135.13 459.023L1135.12 458.023L1135.11 458.023L1135.13 459.023ZM1145.05 457.386L1145.4 458.324L1146.21 458.021L1146.02 457.173L1145.05 457.386ZM1142.29 444.756L1143.26 444.542L1143.05 443.582L1142.09 443.775L1142.29 444.756ZM1127.51 391.727V390.727H1126.51V391.727H1127.51ZM1143.62 391.727V392.727H1144.62V391.727H1143.62ZM1143.62 378.455H1127.51V380.455H1143.62V378.455ZM1128.51 379.455V360.636H1126.51V379.455H1128.51ZM1127.51 359.636H1112.22V361.636H1127.51V359.636ZM1111.22 360.636V379.455H1113.22V360.636H1111.22ZM1112.22 378.455H1100.71V380.455H1112.22V378.455ZM1099.71 379.455V391.727H1101.71V379.455H1099.71ZM1100.71 392.727H1112.22V390.727H1100.71V392.727ZM1111.22 391.727V438.108H1113.22V391.727H1111.22ZM1111.22 438.104C1111.19 445.518 1114.02 451.103 1118.49 454.783C1122.94 458.444 1128.93 460.154 1135.15 460.023L1135.11 458.023C1129.26 458.147 1123.77 456.534 1119.76 453.239C1115.78 449.965 1113.19 444.965 1113.22 438.112L1111.22 438.104ZM1135.14 460.023C1140.12 459.97 1143.51 459.025 1145.4 458.324L1144.7 456.449C1143.01 457.078 1139.85 457.973 1135.12 458.023L1135.14 460.023ZM1146.02 457.173L1143.26 444.542L1141.31 444.969L1144.07 457.6L1146.02 457.173ZM1142.09 443.775C1141.04 443.985 1139.25 444.42 1136.92 444.42V446.42C1139.49 446.42 1141.49 445.935 1142.48 445.736L1142.09 443.775ZM1136.92 444.42C1134.51 444.42 1132.46 444.016 1131.01 442.744C1129.58 441.494 1128.51 439.21 1128.51 434.938H1126.51C1126.51 439.512 1127.66 442.469 1129.69 444.249C1131.7 446.007 1134.36 446.42 1136.92 446.42V444.42ZM1128.51 434.938V391.727H1126.51V434.938H1128.51ZM1127.51 392.727H1143.62V390.727H1127.51V392.727ZM1144.62 391.727V379.455H1142.62V391.727H1144.62ZM1160.53 458H1159.53V459H1160.53V458ZM1175.82 458V459H1176.82V458H1175.82ZM1175.82 379.455H1176.82V378.455H1175.82V379.455ZM1160.53 379.455V378.455H1159.53V379.455H1160.53ZM1160.53 459H1175.82V457H1160.53V459ZM1176.82 458V379.455H1174.82V458H1176.82ZM1175.82 378.455H1160.53V380.455H1175.82V378.455ZM1159.53 379.455V458H1161.53V379.455H1159.53ZM1168.25 368.335C1174.01 368.335 1178.91 363.856 1178.91 358.233H1176.91C1176.91 362.633 1173.03 366.335 1168.25 366.335V368.335ZM1178.91 358.233C1178.91 352.617 1174.02 348.08 1168.25 348.08V350.08C1173.02 350.08 1176.91 353.826 1176.91 358.233H1178.91ZM1168.25 348.08C1162.43 348.08 1157.59 352.621 1157.59 358.233H1159.59C1159.59 353.823 1163.43 350.08 1168.25 350.08V348.08ZM1157.59 358.233C1157.59 363.852 1162.44 368.335 1168.25 368.335V366.335C1163.43 366.335 1159.59 362.636 1159.59 358.233H1157.59Z" fill="currentColor"/>
</g>
<path fill-rule="evenodd" id="blob-right" clip-rule="evenodd" fill="url(#paint0_linear)">
    <animate attributeName="d" dur="18000ms" repeatCount="indefinite"
        values="M1022.21 7.8548C1091.79 -10.322 1173.03 2.97983 1228.72 48.4754C1283.52 93.2321 1295.21 170.465 1306.74 240.269C1316.78 301.037 1311.22 361.907 1290.05 419.746C1269.53 475.797 1232.74 521.645 1188.92 562.18C1139.46 607.942 1088.61 656.047 1022.21 667.536C948.732 680.249 865.886 674.62 807.557 628.163C749.972 582.299 740.518 501.388 723.632 429.733C708.172 364.128 682.172 291.912 714.361 232.693C745.628 175.173 828.71 177.773 881.58 139.159C934.67 100.385 958.602 24.4708 1022.21 7.8548Z;
        
        M1023.97 17.0199C1084.14 15.7336 1124.52 77.066 1167.29 119.408C1203.58 155.334 1237.06 193.749 1251.85 242.623C1266.42 290.772 1256.82 340.108 1249.13 389.824C1239.81 450.16 1245.76 519.283 1202.43 562.286C1157.41 606.952 1087.21 618.002 1023.97 613.246C963.568 608.703 911.069 574.973 864.01 536.833C819.15 500.477 779.623 456.763 762.754 401.54C746.075 346.941 748.598 286.901 771.717 234.702C793.5 185.522 844.318 160.583 885.04 125.442C930.63 86.1011 963.768 18.307 1023.97 17.0199Z;

        M1049.93 2.26323C1118.03 -10.8236 1189.41 34.8281 1233.84 88.0636C1274.33 136.568 1249.81 209.91 1272.48 268.884C1297.3 333.456 1389.82 378.96 1371.26 445.602C1352.93 511.465 1252.46 503.659 1196.27 542.612C1142.09 580.179 1115.03 657.889 1049.93 668.382C982.872 679.193 921.905 632.784 864.768 596.052C804.197 557.113 729.39 520.883 711.856 451.043C694.471 381.792 739.246 312.588 778.659 253.053C810.298 205.259 868.999 189 911.087 150.09C961.972 103.048 981.879 15.3415 1049.93 2.26323Z;

        M1022.21 7.8548C1091.79 -10.322 1173.03 2.97983 1228.72 48.4754C1283.52 93.2321 1295.21 170.465 1306.74 240.269C1316.78 301.037 1311.22 361.907 1290.05 419.746C1269.53 475.797 1232.74 521.645 1188.92 562.18C1139.46 607.942 1088.61 656.047 1022.21 667.536C948.732 680.249 865.886 674.62 807.557 628.163C749.972 582.299 740.518 501.388 723.632 429.733C708.172 364.128 682.172 291.912 714.361 232.693C745.628 175.173 828.71 177.773 881.58 139.159C934.67 100.385 958.602 24.4708 1022.21 7.8548Z;
        "
    >

    </animate>
</path>
<path fill-rule="evenodd" id="blob-left" clip-rule="evenodd" fill="url(#paint1_linear)">
    <animate attributeName="d" dur="25000ms" repeatCount="indefinite"
        values="M297.439 38.4339C359.547 47.4606 384.036 124.117 436.857 158.01C495.106 195.387 580.618 188.067 619.677 245.201C661.956 307.043 669.905 392.172 645.319 462.936C620.925 533.148 553.353 575.886 490.824 616.074C431.663 654.097 367.76 687.383 297.439 686.522C227.638 685.666 161.752 655.263 107.467 611.376C55.2132 569.131 6.87856 513.29 0.433577 446.406C-5.61482 383.636 53.2488 336.803 75.3173 277.731C95.9301 222.555 85.0304 155.869 125.101 112.7C168.724 65.7034 233.984 29.2113 297.439 38.4339Z;

        M319.591 91.534C390.437 87.3232 461.563 19.4344 523.792 53.5584C585.071 87.1615 577.657 177.297 597.948 244.174C617.731 309.382 658.113 373.073 640.721 438.959C622.984 506.15 569.845 563.517 506.251 591.534C447.78 617.294 383.189 574.295 319.591 580.435C244.586 587.675 172.362 663.603 104.773 630.289C38.638 597.692 20.0109 506.008 19.009 432.283C18.139 368.259 80.3416 324.205 99.7846 263.199C119.414 201.607 81.3474 116.617 132.295 76.8275C182.889 37.3146 255.509 95.3428 319.591 91.534Z;

        M285.789 62.7656C356.919 40.0528 430.013 -23.0493 497.544 8.8073C563.337 39.8437 577.321 130.952 583.909 203.398C589.612 266.116 547.009 319.05 531.302 380.036C514.035 447.08 535.263 527.764 487.468 577.85C437.867 629.827 357.61 635.449 285.789 637.315C212.333 639.224 121.607 646.423 76.3477 588.535C30.0475 529.315 77.5064 443.69 75.6517 368.541C74.476 320.907 53.2667 274.811 67.4823 229.331C81.7959 183.539 115.642 147.678 153.785 118.575C192.717 88.87 239.139 77.6618 285.789 62.7656Z;

        M297.439 38.4339C359.547 47.4606 384.036 124.117 436.857 158.01C495.106 195.387 580.618 188.067 619.677 245.201C661.956 307.043 669.905 392.172 645.319 462.936C620.925 533.148 553.353 575.886 490.824 616.074C431.663 654.097 367.76 687.383 297.439 686.522C227.638 685.666 161.752 655.263 107.467 611.376C55.2132 569.131 6.87856 513.29 0.433577 446.406C-5.61482 383.636 53.2488 336.803 75.3173 277.731C95.9301 222.555 85.0304 155.869 125.101 112.7C168.724 65.7034 233.984 29.2113 297.439 38.4339Z;
        "
        >

    </animate>
</path>
<defs>
<linearGradient id="paint0_linear" x1="1005.29" y1="0" x2="1005.29" y2="673.421" gradientUnits="userSpaceOnUse">
<stop stop-color="#FFE600"/>
<stop offset="1" stop-color="#FFE600" stop-opacity="0"/>
</linearGradient>
<linearGradient id="paint1_linear" x1="330" y1="53.5" x2="329.579" y2="686.538" gradientUnits="userSpaceOnUse">
<stop stop-color="#2AFF25"/>
<stop offset="1" stop-color="white" stop-opacity="0"/>
</linearGradient>
</defs>
</svg>
